<svg width="438" height="126" viewBox="0 0 438 126" fill="none" xmlns="http://www.w3.org/2000/svg">
<path d="M390.517 109.664C388.443 109.628 386.587 111.047 384.444 110.824C383.437 111.923 382.088 111.386 380.915 111.73C380.465 112.275 379.722 111.819 379.277 112.428C378.519 112.486 377.765 112.606 377.006 112.663C376.601 113.078 376.049 112.991 375.561 113.028C375.182 113.057 374.739 112.962 374.501 113.427C373.797 113.481 373.097 113.597 372.392 113.65C372.036 113.997 371.598 113.966 371.219 113.994C370.893 114.019 370.509 113.984 370.213 114.39C367.537 114.336 365.031 115.803 362.351 115.685C361.843 116.171 361.228 115.962 360.636 116.07C360.261 116.162 359.759 116.009 359.467 116.478C358.383 116.56 357.358 116.701 356.274 116.783C355.662 117.34 354.879 117.079 354.179 117.196C353.805 117.288 353.303 117.134 353.011 117.604C351.818 117.694 350.631 117.847 349.438 117.937C348.56 118.578 347.501 118.275 346.53 118.412C346.101 118.508 345.599 118.354 345.253 118.828C343.681 118.946 342.168 119.124 340.596 119.242C340.295 119.585 339.911 119.55 339.477 119.582C338.393 119.664 337.309 119.746 336.225 119.827C335.9 119.852 335.575 119.876 335.327 120.215C333.105 120.382 330.887 120.613 328.665 120.781C328.31 121.127 327.871 121.096 327.492 121.125C324.944 121.317 322.396 121.509 319.849 121.701C319.469 121.729 319.026 121.635 318.789 122.1C309.14 122.827 299.492 123.554 289.898 124.277C289.593 123.853 289.169 124.012 288.789 124.041C286.188 124.237 283.586 124.433 280.93 124.633C280.496 124.666 280.067 124.762 279.718 124.469C277.387 124.644 275.052 124.756 272.721 124.932C272.426 124.635 272.047 124.663 271.667 124.692C270.366 124.79 269.065 124.888 267.819 124.982C267.439 125.01 267.06 125.039 266.661 124.813C264.764 124.956 262.808 125.04 260.911 125.183C260.616 124.885 260.29 124.91 259.965 124.934C258.827 125.02 257.689 125.106 256.55 125.192C256.171 125.22 255.791 125.249 255.393 125.023C253.55 125.162 251.702 125.237 249.805 125.38C249.51 125.083 249.185 125.107 248.859 125.132C247.83 125.209 246.8 125.287 245.824 125.361C245.445 125.389 245.065 125.418 244.667 125.192C242.878 125.327 241.084 125.398 239.295 125.533C239.001 125.235 238.675 125.26 238.35 125.284C237.32 125.362 236.29 125.44 235.315 125.513C234.935 125.542 234.556 125.57 234.157 125.345C232.639 125.459 231.171 125.506 229.653 125.62C229.358 125.323 229.033 125.347 228.708 125.372C227.786 125.441 226.919 125.507 225.998 125.576C225.672 125.6 225.347 125.625 225.057 125.391C223.648 125.497 222.179 125.544 220.77 125.65C220.357 125.234 219.884 125.461 219.445 125.43C218.568 125.369 217.73 125.815 216.878 125.368C215.578 125.466 214.272 125.501 212.917 125.603C212.504 125.186 212.03 125.414 211.592 125.383C210.828 125.377 210.088 125.688 209.404 125.292C208.212 125.382 207.015 125.408 205.822 125.498C205.468 125.141 205.044 125.301 204.606 125.27C203.896 125.26 203.157 125.571 202.473 125.175C201.28 125.265 200.083 125.291 198.89 125.381C198.477 124.965 198.004 125.192 197.565 125.161C196.802 125.155 196.062 125.466 195.378 125.07C194.294 125.152 193.205 125.17 192.175 125.248C191.762 124.831 191.289 125.059 190.85 125.028C190.195 125.013 189.51 125.321 188.826 124.925C187.741 125.007 186.653 125.025 185.623 125.102C185.21 124.686 184.736 124.913 184.298 124.883C183.643 124.868 182.957 125.175 182.273 124.779C181.189 124.861 180.1 124.879 179.07 124.957C178.711 124.536 178.292 124.76 177.854 124.729C177.307 124.706 176.779 124.938 176.263 124.593C175.233 124.671 174.252 124.681 173.222 124.758C172.864 124.338 172.444 124.561 172.006 124.53C171.405 124.512 170.823 124.747 170.252 124.407C169.168 124.488 168.133 124.502 167.049 124.584C166.695 124.227 166.271 124.387 165.833 124.356C165.286 124.333 164.758 124.565 164.242 124.22C163.375 124.286 162.448 124.291 161.581 124.357C161.222 123.936 160.803 124.16 160.365 124.129C159.818 124.106 159.29 124.338 158.773 123.993C157.906 124.058 156.98 124.064 156.113 124.13C155.759 123.773 155.389 123.928 155.005 123.893C154.625 123.922 154.246 123.951 153.847 123.725C152.98 123.79 152.054 123.796 151.186 123.862C150.828 123.441 150.408 123.664 149.97 123.634C149.423 123.611 148.895 123.842 148.379 123.498C147.674 123.551 146.969 123.604 146.26 123.593C145.901 123.173 145.482 123.396 145.044 123.366C144.497 123.343 143.969 123.574 143.452 123.23C142.748 123.283 142.038 123.272 141.334 123.325C140.98 122.969 140.61 123.124 140.226 123.089C139.846 123.118 139.472 123.21 139.068 122.921C138.364 122.974 137.659 123.027 136.949 123.017C136.595 122.66 136.226 122.815 135.841 122.78C135.462 122.809 135.087 122.901 134.684 122.612C133.979 122.665 133.27 122.655 132.565 122.708C132.211 122.351 131.841 122.506 131.457 122.471C131.078 122.5 130.703 122.592 130.3 122.303C129.595 122.356 128.886 122.346 128.181 122.399C127.827 122.042 127.457 122.198 127.073 122.163C126.693 122.191 126.319 122.283 125.915 121.994C125.319 122.039 124.772 122.016 124.176 122.061C122.767 122.167 121.335 121.253 119.9 121.744C119.546 121.387 119.176 121.543 118.792 121.508C118.413 121.537 118.038 121.629 117.635 121.34C116.876 121.397 115.919 121.725 115.294 121.388C114.212 120.766 113.206 121.162 112.161 121.049C111.807 120.692 111.438 120.848 111.053 120.813C110.674 120.841 110.299 120.933 109.896 120.644C109.3 120.689 108.609 120.933 108.102 120.715C106.808 120.174 105.383 120.792 104.201 120.306C103.074 119.816 102.068 120.211 101.019 120.035C99.8567 119.802 98.6801 119.38 97.502 119.66C96.9168 119.129 96.1963 119.695 95.6159 119.227C93.8957 119.548 92.2328 118.459 90.5222 118.908C89.5289 118.024 88.3938 118.876 87.434 118.437C86.1984 117.955 84.9805 118.43 83.9123 117.999C83.0115 117.62 82.0645 118.075 81.3757 117.615C80.3968 116.922 79.2075 117.779 78.313 116.759C78.254 116.7 78.1998 116.704 78.1504 116.771C76.8193 117.191 75.5151 116.523 74.2396 116.235C73.24 115.991 72.0666 116.335 71.1817 115.443L71.1227 115.383C70.112 115.715 69.1825 114.954 68.2418 114.769C67.247 114.589 66.0593 114.742 65.1249 113.917C65.0659 113.858 65.0117 113.862 64.9575 113.866C63.8096 113.825 62.6378 113.466 61.6095 112.84C61.5505 112.78 61.442 112.789 61.3336 112.797C60.0821 112.827 58.9406 112.146 57.7783 111.914C56.9461 111.721 56.0549 111.469 55.2721 111.208C54.4844 110.884 53.5279 111.211 52.8646 110.366C52.8056 110.307 52.6382 110.256 52.5298 110.264C51.6227 110.524 50.8111 109.882 50.0283 109.621C48.9107 109.258 47.7437 108.962 46.6563 108.277C45.8001 107.766 44.7861 107.331 43.8853 106.952C43.3193 106.675 42.6991 106.402 42.1778 105.994C41.2036 105.364 40.1704 104.675 39.1963 104.045C37.9319 103.181 36.5592 102.326 35.4829 101.065C34.4704 99.9263 33.2507 98.9314 32.337 97.6579C31.7869 96.8683 31.173 95.9557 30.6181 95.1025C30.068 94.3129 30.307 93.1443 29.5003 92.5658C29.3823 92.4469 29.3536 92.0655 29.3296 91.7476C29.1716 89.65 28.9051 87.5606 28.9144 85.5143C28.9462 84.4891 29.1358 83.388 29.5518 82.3978C29.7893 81.9324 29.8498 81.2886 30.0825 80.7597C30.4045 79.9683 30.6723 79.1811 30.9942 78.3897C31.8708 76.278 33.1652 74.6463 34.45 72.8874C35.2901 71.7374 35.9978 70.2777 37.0786 69.4292C37.7992 68.8635 38.4511 68.1112 39.1717 67.5455C39.9959 66.9081 40.9332 66.326 41.5118 65.3236C41.853 64.7865 42.3854 64.6185 42.7505 64.3992C43.6337 63.8212 44.4036 63.1879 45.341 62.6059C45.8097 62.3149 46.4506 62.1387 46.7869 61.538C46.9351 61.3351 47.0977 61.3228 47.2556 61.247C48.1181 61.1181 48.7158 60.3699 49.4507 59.9949C50.082 59.6916 50.5172 58.9557 51.2856 59.0256C51.9409 59.0402 52.3808 58.3678 52.9579 58.0686C53.3278 57.9129 53.8108 57.8125 54.0627 57.5379C54.7195 56.8491 55.5963 56.9109 56.3169 56.3452C56.8302 55.923 57.5109 55.5521 58.1964 55.2447C58.9855 54.8656 59.9118 54.8597 60.5048 54.048C60.5542 53.9803 60.7168 53.9681 60.8204 53.8963C61.8312 53.5645 62.8419 53.2326 63.7107 52.464C63.7601 52.3963 63.8685 52.3882 63.9769 52.38C65.085 52.6161 66.1212 51.8988 66.7875 51.3372C67.6611 50.6321 68.9111 51.305 69.5248 50.0442C70.5196 50.2249 71.2162 49.3414 72.1233 49.0813C73.1883 48.7454 74.435 48.6514 75.3484 47.7516C75.3484 47.7516 75.3978 47.6839 75.4568 47.7434C76.6732 47.9714 77.5771 46.9444 78.7058 46.7315C79.943 46.5104 81.2247 46.1581 82.2513 45.3137C82.3007 45.246 82.3549 45.2419 82.4092 45.2379C83.8966 45.4454 85.2485 44.5764 86.5207 44.097C87.7386 43.6217 89.1815 43.9605 90.2384 42.7941C90.2878 42.7265 90.342 42.7224 90.3962 42.7183C92.1451 42.7783 93.626 41.4521 95.3845 41.6392C95.6858 41.2969 96.1832 41.3873 96.4797 40.9814C97.076 40.9365 97.6818 41.0187 98.1553 40.7912C99.5661 39.9817 101.176 40.3718 102.488 39.6976C103.539 39.171 104.524 39.2246 105.54 38.9563C105.895 38.6099 106.334 38.6408 106.713 38.6122C107.038 38.5877 107.423 38.6227 107.665 38.2208C108.37 38.1677 109.069 38.0511 109.774 37.998C110.075 37.6557 110.514 37.6866 110.893 37.658C111.218 37.6335 111.544 37.609 111.791 37.2707C112.604 37.2094 113.466 37.0805 114.279 37.0193C114.684 36.6052 115.236 36.6915 115.724 36.6547C116.103 36.6261 116.542 36.657 116.784 36.2552C117.922 36.1695 119.056 36.0201 120.194 35.9344C120.86 35.3727 121.643 35.6334 122.343 35.5167C122.772 35.4205 123.274 35.5744 123.62 35.1009C125.192 34.9824 126.705 34.8045 128.277 34.6861C128.578 34.3437 128.962 34.3787 129.396 34.346C130.914 34.2317 132.431 34.1173 134.003 33.9989C134.383 33.9703 134.713 34.0093 135.009 33.6035C140.592 33.1828 146.175 32.7621 151.759 32.3414C152.054 32.6388 152.433 32.6102 152.812 32.5816C154.276 32.4714 155.739 32.3611 157.203 32.2508C157.582 32.2222 157.962 32.1936 158.36 32.4193C159.011 32.3703 159.666 32.3848 160.366 32.2682C161.391 32.127 162.207 32.8326 163.099 33.0851C164.212 33.3848 164.106 34.1598 164.228 35.0456C164.335 35.7407 163.88 36.2224 163.51 36.3782C162.721 36.7573 162.069 37.5096 161.129 37.3247C160.827 37.6671 160.448 37.6956 160.014 37.7283C158.984 37.8059 157.955 37.8835 156.979 37.957C156.654 37.9815 156.328 38.0061 156.081 38.3443C153.046 38.573 149.961 38.8694 146.925 39.0981C146.57 39.4445 146.132 39.4136 145.752 39.4422C143.15 39.6383 140.548 39.8343 137.892 40.0344C137.513 40.063 137.075 40.0321 136.832 40.4339C134.447 40.6137 132.067 40.8569 129.628 41.0407C129.327 41.383 128.942 41.3481 128.509 41.3807C127.425 41.4624 126.34 41.5441 125.256 41.6258C124.931 41.6503 124.606 41.6748 124.359 42.0131C123.004 42.1152 121.599 42.2849 120.244 42.387C119.632 42.9446 118.849 42.6839 118.149 42.8006C117.72 42.8968 117.272 42.7388 116.981 43.2083C116.005 43.2818 115.088 43.4148 114.113 43.4883C113.654 43.9064 113.102 43.8201 112.56 43.861C112.185 43.9531 111.683 43.7992 111.391 44.2687C110.524 44.334 109.607 44.467 108.74 44.5324C108.385 44.8788 107.946 44.8479 107.567 44.8765C107.241 44.901 106.857 44.866 106.615 45.2678C105.91 45.3209 105.21 45.4376 104.506 45.4907C104.051 45.9724 103.313 45.5805 102.869 46.1893C101.164 45.9981 99.6833 47.3243 97.9886 47.2602C96.6239 47.2352 95.3709 47.9689 94.1481 48.3806C93.241 48.6408 92.1425 48.5318 91.422 49.0974C90.2917 50.0136 88.7659 49.2976 87.8175 50.4558C87.7681 50.5234 87.7138 50.5275 87.6596 50.5316C86.2806 50.3159 85.0276 51.0495 83.9276 51.6438C82.9312 52.1664 81.7052 51.8113 80.9687 52.8896L80.9193 52.9572C79.8161 52.7847 79.0063 53.6128 78.0497 53.9405C76.8812 54.3482 75.6935 54.5016 74.6668 55.3461C74.5632 55.4178 74.4596 55.4896 74.3464 55.4342C73.2384 55.198 72.4333 56.0897 71.4768 56.4175C70.2588 56.8928 68.9867 57.3722 67.7783 57.9747C66.6735 58.5054 65.6229 59.032 64.5134 59.4992C63.5122 59.9582 62.4569 60.4213 61.5737 60.9992C60.9026 61.4972 60.0209 61.3719 59.3737 62.1878C59.023 62.5977 58.1462 62.536 57.6424 63.0853C56.9315 63.7781 55.9558 63.8517 55.181 64.4214C54.6629 64.7801 53.9136 64.9644 53.3413 65.3272C52.7738 65.7535 52.1919 65.9891 51.6834 66.4749C51.2737 66.8254 50.7604 67.2476 50.381 67.2762C49.1438 67.4973 48.2894 68.4566 47.3026 69.1063C46.6761 69.4731 46.0927 70.412 45.4072 70.7194C44.5097 71.1066 44.1623 72.2835 43.2456 72.4165C42.8709 72.5086 42.9539 72.8859 42.7466 73.0294C41.755 73.6155 41.009 74.5667 40.1402 75.3353C39.2666 76.0404 38.6434 77.1741 37.9022 78.1888C37.5563 78.6624 37.1562 79.14 36.9282 79.7325C36.3146 80.9933 35.4793 82.2069 35.1462 83.5744C34.6443 85.5939 34.5313 87.712 35.0688 89.781C35.2203 90.3449 35.391 91.1631 35.9713 91.6308C36.3747 91.92 36.5406 92.6746 36.6777 93.0478C37.1578 94.3541 38.1766 94.8526 38.8989 95.7571C39.5574 96.5385 40.2749 97.3794 41.0673 97.7672C41.9187 98.2144 42.5724 98.9322 43.478 99.3754C44.3836 99.8186 45.388 100.126 46.2043 100.832C46.6125 101.185 47.1051 101.212 47.5037 101.437C48.6357 101.991 49.7677 102.545 50.8997 103.099C51.5199 103.372 52.2294 103.383 52.8543 103.719C53.9959 104.4 55.3462 104.234 56.3986 105.178C56.5166 105.297 56.6792 105.285 56.8418 105.272C57.7537 105.076 58.6147 105.65 59.3433 105.915C60.0767 106.243 61.0236 105.788 61.5881 106.769C61.5929 106.832 61.7555 106.82 61.8639 106.812C62.9288 106.476 64.0066 107.034 64.799 107.422C65.5914 107.809 66.583 107.223 67.098 108.271C67.098 108.271 67.1522 108.267 67.2065 108.263C68.3208 107.859 69.413 108.608 70.4668 108.848C71.5159 109.025 72.7084 108.935 73.6921 109.692C73.7511 109.752 73.8053 109.747 73.8595 109.743C75.0281 109.336 76.1696 110.017 77.1741 110.325C78.2327 110.628 79.4554 110.217 80.3946 111.105C80.4536 111.164 80.5078 111.16 80.562 111.156C82.0016 110.728 83.4684 111.385 84.798 111.668C86.0735 111.955 87.454 111.468 88.669 112.399C88.728 112.459 88.7822 112.454 88.8364 112.45C90.4976 112.07 92.1111 113.226 93.7133 112.786C94.072 113.207 94.6491 112.907 95.0573 113.26C95.762 113.207 96.4714 113.218 97.1761 113.164C97.589 113.581 98.1119 113.286 98.5201 113.638C99.1706 113.589 99.9151 113.342 100.476 113.555C101.988 114.08 103.576 113.449 105.033 113.979C106.323 114.457 107.491 114.049 108.703 114.214C109.057 114.571 109.427 114.415 109.811 114.45C110.136 114.425 110.461 114.401 110.751 114.635C111.348 114.59 111.944 114.545 112.545 114.563C114.353 114.683 116.185 115.12 117.959 114.795C118.313 115.152 118.683 114.996 119.067 115.031C119.447 115.002 119.821 114.91 120.225 115.199C120.929 115.146 121.683 115.026 122.398 115.1C124.206 115.219 126.037 115.656 127.812 115.331C128.166 115.688 128.536 115.532 128.92 115.567C129.299 115.538 129.674 115.446 130.077 115.735C130.945 115.67 131.871 115.664 132.738 115.599C133.092 115.956 133.462 115.8 133.846 115.835C134.226 115.806 134.6 115.714 135.004 116.004C135.871 115.938 136.797 115.932 137.664 115.867C138.018 116.224 138.388 116.068 138.773 116.103C139.211 116.134 139.689 115.97 140.093 116.259C140.906 116.198 141.778 116.196 142.591 116.135C142.95 116.555 143.369 116.332 143.807 116.363C144.354 116.386 144.882 116.154 145.398 116.499C146.266 116.433 147.192 116.428 148.059 116.362C148.413 116.719 148.783 116.563 149.167 116.598C149.547 116.57 149.921 116.478 150.325 116.767C151.192 116.701 152.118 116.696 152.985 116.63C153.344 117.051 153.764 116.827 154.202 116.858C154.749 116.881 155.276 116.649 155.793 116.994C156.498 116.941 157.207 116.951 157.912 116.898C158.271 117.319 158.69 117.095 159.128 117.126C159.675 117.149 160.203 116.917 160.719 117.262C161.587 117.197 162.513 117.191 163.38 117.126C163.739 117.546 164.158 117.323 164.597 117.354C165.143 117.376 165.671 117.145 166.188 117.489C167.055 117.424 167.981 117.418 168.849 117.353C169.203 117.71 169.572 117.554 169.957 117.589C170.449 117.616 170.977 117.384 171.439 117.733C172.198 117.676 173.026 117.805 173.77 117.557C174.786 117.289 175.671 118.181 176.691 117.976C177.716 117.835 178.751 117.821 179.731 117.811C180.09 118.232 180.509 118.008 180.948 118.039C181.494 118.062 182.022 117.83 182.539 118.175C183.514 118.102 184.441 118.096 185.416 118.022C185.775 118.443 186.194 118.219 186.633 118.25C187.234 118.269 187.816 118.033 188.386 118.374C189.145 118.317 189.904 118.259 190.668 118.266C192.895 118.162 195.081 118.956 197.275 118.407C197.633 118.828 198.053 118.604 198.491 118.635C199.092 118.654 199.674 118.418 200.245 118.759C201.275 118.681 202.255 118.671 203.285 118.594C203.698 119.01 204.171 118.782 204.61 118.813C205.265 118.828 205.951 118.521 206.635 118.916C207.719 118.835 208.753 118.821 209.837 118.739C210.191 119.096 210.615 118.936 211.054 118.967C211.601 118.99 212.128 118.758 212.645 119.103C213.892 119.009 215.143 118.979 216.39 118.885C216.803 119.301 217.276 119.073 217.715 119.104C218.37 119.119 219.056 118.812 219.739 119.208C220.986 119.114 222.238 119.083 223.484 118.989C223.897 119.406 224.371 119.178 224.809 119.209C225.795 119.263 226.741 118.808 227.755 119.243C229.273 119.128 230.742 119.082 232.259 118.967C232.554 119.265 232.879 119.24 233.205 119.216C234.126 119.146 234.993 119.081 235.915 119.012C236.24 118.987 236.565 118.963 236.856 119.196C238.536 119.07 240.221 119.007 241.901 118.88C242.196 119.177 242.522 119.153 242.847 119.128C243.985 119.043 245.123 118.957 246.262 118.871C246.641 118.843 247.021 118.814 247.419 119.04C249.316 118.897 251.273 118.813 253.17 118.67C253.469 119.031 253.844 118.939 254.224 118.91C255.524 118.812 256.825 118.714 258.072 118.621C258.452 118.592 258.831 118.563 259.23 118.789C261.344 118.63 263.408 118.538 265.522 118.379C265.817 118.676 266.197 118.648 266.576 118.619C267.823 118.525 269.015 118.435 270.262 118.341C270.641 118.313 271.021 118.284 271.419 118.51C274.401 118.285 277.441 118.12 280.422 117.895C280.717 118.193 281.097 118.164 281.476 118.136C294.648 117.143 307.874 116.146 321.045 115.154C321.425 115.125 321.755 115.164 322.051 114.759C325.52 114.497 328.985 114.172 332.508 113.907C332.809 113.564 333.194 113.599 333.627 113.567C335.037 113.461 336.446 113.354 337.855 113.248C338.235 113.22 338.565 113.259 338.861 112.853C340.596 112.722 342.325 112.528 344.06 112.397C344.938 111.756 345.997 112.059 346.968 111.922C347.397 111.826 347.899 111.98 348.245 111.506C349.546 111.408 350.842 111.247 352.197 111.145C352.863 110.583 353.646 110.844 354.346 110.727C354.775 110.631 355.277 110.785 355.623 110.311C356.707 110.23 357.732 110.088 358.816 110.007C359.275 109.589 359.827 109.675 360.369 109.634C360.744 109.542 361.246 109.696 361.538 109.226C362.405 109.161 363.322 109.028 364.189 108.963C364.648 108.544 365.2 108.631 365.742 108.59C366.116 108.498 366.619 108.652 366.91 108.182C367.615 108.129 368.32 108.076 369.019 107.959C369.375 107.613 369.813 107.644 370.193 107.615C370.518 107.591 370.902 107.626 371.199 107.22C372.066 107.155 372.983 107.022 373.85 106.956C374.304 106.474 375.043 106.866 375.487 106.257C376.084 106.213 376.685 106.231 377.271 106.059C378.873 105.619 380.49 105.369 382.033 104.869C382.99 104.542 384.206 104.769 384.917 104.077C385.988 103.101 387.529 104.008 388.467 102.722C388.517 102.655 388.571 102.651 388.63 102.71C390.063 102.922 391.371 102.184 392.471 101.59C393.62 100.928 395.028 101.525 395.917 100.307C395.917 100.307 395.971 100.303 396.026 100.299C397.242 100.527 398.21 99.6231 399.27 99.2236C400.222 98.8323 401.428 98.9331 402.229 97.9779C402.278 97.9102 402.382 97.8385 402.495 97.8939C403.603 98.13 404.531 97.4209 405.36 96.847C406.243 96.269 407.474 96.6877 408.151 95.5499C408.201 95.4823 408.363 95.47 408.472 95.4619C409.58 95.698 410.385 94.8063 411.336 94.415C412.554 93.9396 413.836 93.5874 414.986 92.9254C415.454 92.6344 416.095 92.4583 416.436 91.9212C416.58 91.6547 416.796 91.6383 416.959 91.6261C417.767 91.5012 418.429 90.8761 419.041 90.3185C419.397 89.9721 419.87 89.7447 420.289 89.5213C421.231 89.0028 421.742 87.8138 422.649 87.5536C423.605 87.2259 423.894 85.9895 424.864 85.8525C425.244 85.8239 425.156 85.383 425.359 85.176C427.393 83.2328 429.245 81.0476 430.739 78.442C431.124 77.7737 431.161 76.812 431.615 76.3303C432.465 75.3074 431.655 73.9621 432.224 72.8325C432.555 72.1683 432.608 70.694 431.728 69.8654C431.61 69.7465 431.586 69.4286 431.567 69.1744C431.53 67.9626 430.758 67.1258 430.41 66.1292C430.058 65.069 429.202 64.5582 428.854 63.5616C428.516 62.6921 427.655 62.1177 427.006 61.4634C425.531 59.9764 424.101 58.3582 422.488 57.2013C421.218 56.2741 420.286 54.7463 418.725 54.2885C418.336 54.19 418.062 53.4436 417.609 53.222C416.585 52.6599 415.606 51.9665 414.686 51.3327C413.82 50.6947 412.811 50.3233 412.039 49.4865C411.681 49.066 411.065 48.8567 410.509 48.7068C410.174 48.6042 409.992 48.3622 409.707 48.1919C408.959 47.673 408.167 47.2852 407.374 46.8974C406.749 46.561 405.927 46.4951 405.495 45.8245C405.063 45.1539 404.348 45.0798 403.841 44.8623C402.886 44.4868 401.971 43.9165 401.011 43.4774C400.11 43.0978 399.151 42.6588 398.29 42.0844C397.773 41.7397 397.134 41.2126 396.38 41.3333C395.734 41.4459 395.198 40.847 394.637 40.6336C394.022 40.4243 393.342 40.0919 392.713 39.6919C391.625 39.0067 390.428 39.033 389.336 38.2843C388.819 37.9396 388.131 37.4801 387.426 37.5332C386.78 37.6458 386.24 36.9834 385.57 36.7781C385.348 36.7309 385.053 36.4335 384.782 36.4539C384.033 36.6382 383.438 35.9799 382.823 35.7705C381.873 35.4586 380.962 34.9518 379.977 34.8982C379.43 34.8755 378.801 34.4755 378.619 34.2335C377.911 33.5197 377.023 34.0341 376.32 33.3839C375.907 32.9675 375 33.2277 374.365 32.7641C373.613 32.1815 372.627 32.1279 371.79 31.8714C371.062 31.6066 370.279 31.346 369.447 31.153C368.614 30.96 367.683 30.9023 366.872 30.2603C366.759 30.2049 366.645 30.1495 366.537 30.1577C365.635 30.4814 364.868 29.7081 363.981 29.5192C362.824 29.3507 361.697 28.8603 360.525 28.5011C359.461 28.1338 358.349 27.8341 357.236 27.5344C356.064 27.1752 354.951 26.8755 353.779 26.5163C352.548 26.0977 351.278 25.8738 350.047 25.4551C349.323 25.254 348.406 25.387 347.698 24.6732C347.227 24.1974 346.359 24.2627 345.812 24.24C344.768 24.1269 343.719 23.9502 342.868 23.503C341.908 23.0639 340.888 23.2686 339.869 22.7701C339.244 22.4336 338.294 22.1217 337.476 22.1194C336.387 22.1375 335.378 21.7661 334.354 21.2039C334.295 21.1444 334.241 21.1485 334.187 21.1526C333.018 21.5603 331.926 20.8116 330.818 20.5754C329.823 20.3947 328.64 20.6117 327.706 19.7871C327.647 19.7276 327.593 19.7317 327.538 19.7358C326.37 20.1435 325.278 19.3947 324.17 19.1586C323.175 18.9779 321.992 19.1948 321.058 18.3703C320.999 18.3108 320.944 18.3149 320.89 18.319C319.722 18.7267 318.427 18.185 317.467 17.7459C316.227 17.2001 314.875 18.069 313.754 16.9389C313.754 16.9389 313.7 16.943 313.646 16.9471C312.364 17.2994 311.163 16.5588 309.952 16.3944C308.907 16.2813 307.665 16.4388 306.677 15.6183C306.618 15.5589 306.564 15.563 306.509 15.567C305.322 15.7205 304.164 15.552 303.042 15.1251C301.693 14.5875 300.15 15.0873 298.831 14.2278C298.831 14.2278 298.777 14.2319 298.723 14.236C297.585 14.3218 296.472 14.0221 295.373 13.9131C293.782 13.7772 292.256 13.0612 290.654 13.5015C289.833 12.7324 288.792 13.3861 288.054 12.9943C287.035 12.4957 285.98 12.9588 285.133 12.5751C284.055 12.0171 282.955 12.6113 282.05 12.1682C280.868 11.6819 279.65 12.1572 278.582 11.7263C277.514 11.2954 276.405 11.7625 275.504 11.3829C274.268 10.9007 273.05 11.376 271.982 10.9451C271.081 10.5655 270.273 10.6903 269.396 10.6286C269.096 10.2676 268.722 10.3597 268.396 10.3843C267.963 10.4169 267.534 10.5132 267.185 10.2198C265.292 10.4264 263.476 9.47647 261.549 9.94132C260.388 9.00598 259.15 9.93034 258.027 9.50351C256.624 8.96997 255.145 9.59285 253.855 9.11471C252.565 8.63657 251.396 9.04424 250.185 8.87984C249.654 8.34452 248.988 8.90613 248.461 8.43437C247.594 8.49972 246.668 8.50559 245.801 8.57094C245.215 8.0397 244.495 8.6054 243.914 8.13773C243.101 8.19899 242.229 8.20077 241.416 8.26204C241.062 7.90516 240.692 8.06088 240.308 8.0259C239.929 8.05449 239.554 8.14665 239.151 7.85742C238.392 7.91459 237.628 7.90821 236.815 7.96948C236.461 7.6126 236.091 7.76831 235.707 7.73334C235.214 7.70653 234.687 7.93807 234.224 7.58936C233.357 7.65471 232.431 7.66057 231.564 7.72592C231.21 7.36904 230.84 7.52476 230.456 7.48979C229.963 7.46298 229.435 7.69452 228.973 7.34581C227.997 7.41932 227.071 7.42519 226.095 7.49871C225.741 7.14183 225.317 7.30163 224.879 7.27074C224.332 7.24802 223.804 7.47956 223.288 7.13493C222.258 7.21253 221.277 7.22248 220.247 7.30008C219.889 6.87964 219.469 7.10301 219.031 7.07212C218.322 7.06165 217.582 7.37308 216.898 6.97714C215.76 7.06291 214.616 7.08512 213.478 7.17089C213.119 6.75045 212.7 6.97381 212.262 6.94292C211.444 6.94062 210.6 7.32379 209.803 6.87246C208.502 6.97048 207.197 7.00494 205.842 7.10705C205.429 6.69069 204.955 6.91814 204.517 6.88725C203.477 6.83772 202.422 7.30079 201.408 6.86579C199.782 6.98832 198.205 7.0432 196.579 7.16573C196.279 6.80477 195.904 6.89692 195.525 6.92551C194.278 7.01945 193.086 7.1093 191.839 7.20324C191.46 7.23183 191.08 7.26042 190.682 7.03476C188.026 7.23489 185.419 7.36737 182.763 7.5675C182.409 7.21062 182.034 7.30277 181.655 7.33136C177.915 7.61318 174.175 7.89499 170.489 8.17273C170.055 8.2054 169.572 8.30572 169.169 8.01649C164.941 8.33506 160.767 8.64955 156.539 8.96813C156.188 9.3781 155.691 9.28773 155.257 9.32041C151.571 9.59814 147.94 9.87179 144.254 10.1495C143.874 10.1781 143.436 10.1472 143.193 10.549C140.7 10.7369 138.157 10.9924 135.664 11.1803C135.362 11.5226 134.978 11.4877 134.545 11.5203C133.19 11.6224 131.834 11.7245 130.479 11.8267C130.1 11.8552 129.77 11.8162 129.473 12.2221C127.685 12.3569 125.901 12.5552 124.112 12.69C123.811 13.0323 123.426 12.9973 122.993 13.03C122.017 13.1035 121.096 13.173 120.12 13.2465C119.795 13.271 119.469 13.2955 119.222 13.6337C117.921 13.7318 116.625 13.8933 115.27 13.9955C114.446 14.6329 113.442 14.325 112.579 14.4539C112.15 14.5502 111.648 14.3962 111.302 14.8698C110.055 14.9637 108.813 15.1212 107.567 15.2152C106.955 15.7727 106.172 15.512 105.472 15.6287C105.097 15.7208 104.595 15.5669 104.303 16.0364C103.219 16.1181 102.14 16.2633 101.11 16.3409C100.656 16.8226 100.045 16.6769 99.5031 16.7177C98.9658 16.8221 98.3552 16.6763 97.9009 17.158C97.0336 17.2234 96.1169 17.3564 95.2497 17.4217C94.8448 17.8358 94.2931 17.7495 93.8053 17.7863C93.4259 17.8149 92.9874 17.784 92.7451 18.1858C91.8779 18.2511 90.9612 18.3841 90.0939 18.4495C89.6348 18.8676 89.0832 18.7813 88.5411 18.8222C88.1665 18.9143 87.6643 18.7604 87.3726 19.2299C86.6679 19.2829 85.968 19.3996 85.2634 19.4527C84.8585 19.8668 84.3068 19.7805 83.819 19.8172C83.4396 19.8458 83.0011 19.8149 82.7588 20.2167C82 20.2739 81.2459 20.3947 80.4328 20.4559C80.0773 20.8023 79.6389 20.7715 79.2595 20.8C78.9343 20.8245 78.55 20.7896 78.2535 21.1955C77.5489 21.2486 76.849 21.3652 76.1443 21.4183C75.7888 21.7647 75.3504 21.7338 74.971 21.7624C74.6458 21.7869 74.2615 21.752 74.0193 22.1538C72.1523 21.9748 70.5088 23.3132 68.5973 23.2655C67.0699 23.2527 65.6543 23.9986 64.2099 24.3632C63.1944 24.6315 62.1741 24.8362 61.208 25.0368C60.8525 25.3833 60.4141 25.3524 60.0347 25.381C59.7094 25.4055 59.3252 25.3705 59.0829 25.7723C57.181 25.8517 55.5278 27.063 53.6067 26.8881C52.7571 27.911 51.4529 27.2422 50.5697 27.8201C49.6323 28.4021 48.7061 28.408 47.74 28.6087C47.4387 28.951 47.0545 28.916 46.6208 28.9487C46.2956 28.9732 45.9704 28.9977 45.7233 29.3359C43.9744 29.2759 42.4934 30.6021 40.7349 30.415C39.7275 31.5137 38.3643 30.7854 37.3185 31.3756C36.1691 32.0375 34.8347 31.6906 33.7937 32.3444C32.8021 32.9305 31.7435 32.6267 30.8555 33.1411C29.7061 33.803 28.3765 33.5196 27.3307 34.1098C26.3933 34.6919 25.3347 34.3881 24.5009 34.8984C23.3021 35.628 21.9087 35.2216 20.9219 35.8712C19.9303 36.4574 18.9897 36.2725 18.0874 36.5962C16.761 37.0797 15.3565 37.2495 14.0253 37.6694C13.2266 37.9214 12.3737 38.1774 11.516 38.3699C11.0664 38.9152 10.3283 38.5233 9.87873 39.0686C8.9222 39.3963 8.21754 39.4494 7.51288 39.5025C7.2116 39.8449 6.71417 39.7545 6.41768 40.1604C5.65881 40.2176 4.89995 40.2747 4.20007 40.3914C3.12077 40.5367 2.17055 40.2247 1.29043 39.3961C1.22664 39.273 1.06882 39.3488 0.960407 39.357C0.912512 38.7214 0.864616 38.0857 0.816721 37.4501C1.57863 35.9863 2.66903 35.2649 4.1134 34.9004C5.07472 34.6362 5.95789 34.0582 7.05156 34.1037C7.54419 34.1305 7.96825 33.9707 8.25996 33.5012C9.7187 33.3274 11.1391 32.645 12.5835 32.2805C13.8158 31.9958 15.171 31.8937 16.306 31.0411C16.4096 30.9694 16.5674 30.8936 16.73 30.8813C17.5973 30.816 18.3864 30.4369 19.2394 30.1808C20.4079 29.7732 21.5956 29.6197 22.7642 29.2121C24.3568 28.6446 26.0228 28.3273 27.601 27.5691C27.9167 27.4175 28.2961 27.3889 28.6755 27.3603C29.3802 27.3072 30.0849 27.2541 30.756 26.756C31.2693 26.3338 31.9883 26.4714 32.5846 26.4265C33.0772 26.4533 33.5603 26.353 33.8472 25.82C34.2665 25.5966 34.7049 25.6275 35.1927 25.5907C35.6264 25.558 36.001 25.4659 36.3613 25.183C36.4649 25.1113 36.5637 24.976 36.6722 24.9678C38.0911 24.9888 39.3153 23.8737 40.7342 23.8947C41.3353 23.9133 41.8725 23.8089 42.3269 23.3272C42.4305 23.2555 42.5341 23.1837 42.6425 23.1756C44.2288 23.2478 45.5711 22.2517 47.0888 22.1373C47.1972 22.1292 47.3646 22.1805 47.4635 22.0452C48.5395 21.1331 49.9967 21.6625 51.0425 21.0723C52.4533 20.2629 54.0684 20.7165 55.4107 19.7204C55.8746 19.3658 56.5936 19.5034 57.1898 19.4585C57.9391 19.2742 58.8447 19.7173 59.4329 18.842C59.798 18.6227 60.1774 18.5941 60.5568 18.5655C61.0989 18.5247 61.6409 18.4838 62.0953 18.0021C62.1989 17.9304 62.3025 17.8587 62.4109 17.8505C64.1598 17.9105 65.6998 16.6438 67.5077 16.7633C68.0545 16.786 68.528 16.5586 69.0509 16.2635C69.9883 15.6814 71.0963 15.9176 72.1756 15.7723C72.9249 15.588 73.8305 16.0312 74.4187 15.1558C75.0452 14.789 75.7642 14.9266 76.4641 14.8099C77.2134 14.6256 78.119 15.0688 78.7072 14.1934C79.3337 13.8266 80.0527 13.9642 80.7526 13.8475C81.5019 13.6632 82.4075 14.1064 82.9909 13.1675C83.8342 12.7843 84.7158 12.9097 85.5289 12.8484C86.0168 12.8116 86.4456 12.7154 86.9382 12.7422C87.3767 12.7731 87.7417 12.5538 87.984 12.152C88.9357 11.7607 89.9258 11.8778 90.9015 11.8043C91.4977 11.7594 92.0892 11.6509 92.6903 11.6695C93.1239 11.6369 93.4395 11.4852 93.6818 11.0834C94.6878 10.688 95.732 10.8011 96.8113 10.6558C97.4076 10.6109 97.9991 10.5024 98.6001 10.5211C99.0337 10.4884 99.3494 10.3368 99.5917 9.93495C100.598 9.53952 101.696 9.64853 102.721 9.50736C103.588 9.44202 104.51 9.37258 105.377 9.30723C105.811 9.27456 106.126 9.12292 106.374 8.78468C107.429 8.32161 108.586 8.4901 109.72 8.34076C110.641 8.27133 111.509 8.20598 112.43 8.13655C112.864 8.10387 113.179 7.95224 113.422 7.55043C114.748 7.06694 116.122 7.21909 117.473 7.05342C118.611 6.96765 119.749 6.88188 120.888 6.79611C121.321 6.76343 121.637 6.6118 121.884 6.27356C123.373 5.77781 124.964 5.91362 126.477 5.7357C127.995 5.62134 129.512 5.50698 131.03 5.39262C131.464 5.35994 131.838 5.26779 132.135 4.8619C132.446 4.6467 132.771 4.62219 133.096 4.59769C135.481 4.41798 137.812 4.24236 140.197 4.06265C143.178 3.83801 146.105 3.61746 149.087 3.39282C149.466 3.36423 149.909 3.45869 150.147 2.99332C158.169 2.38884 166.191 1.78437 174.16 1.18398C174.464 1.60851 174.888 1.4487 175.268 1.42011C177.815 1.22815 180.363 1.03619 182.911 0.844228C183.344 0.811555 183.773 0.715317 184.127 1.0722C186.472 1.08727 188.857 0.907558 191.188 0.731933C191.483 1.02933 191.808 1.00483 192.133 0.980321C193.272 0.894551 194.41 0.808781 195.548 0.723012C195.928 0.694422 196.307 0.665832 196.706 0.891499C198.386 0.764886 200.071 0.701837 201.752 0.575224C202.165 0.991585 202.638 0.764133 203.076 0.795024C204.007 0.852719 204.9 0.4019 205.806 0.845067C207.161 0.742959 208.575 0.700332 209.93 0.598225C210.289 1.01867 210.708 0.795303 211.147 0.826193C211.91 0.832578 212.699 0.453491 213.442 0.90891C214.635 0.819055 215.832 0.792766 217.025 0.702911C217.438 1.11927 217.911 0.89182 218.35 0.922711C219.113 0.929095 219.853 0.617658 220.537 1.0136C221.404 0.948248 222.33 0.942379 223.198 0.877031C223.556 1.29748 223.976 1.07411 224.414 1.105C225.069 1.11955 225.701 0.816283 226.385 1.21222C227.36 1.13871 228.287 1.13284 229.262 1.05932C229.616 1.4162 230.04 1.2564 230.479 1.28729C231.026 1.31001 231.553 1.07847 232.07 1.4231C232.775 1.37 233.479 1.31691 234.189 1.32738C234.547 1.74782 234.967 1.52445 235.405 1.55534C235.952 1.57807 236.48 1.34653 236.996 1.69116C237.864 1.62581 238.79 1.61994 239.657 1.55459C240.011 1.91147 240.381 1.75575 240.765 1.79073C241.145 1.76214 241.519 1.66998 241.923 1.95921C242.465 1.91837 243.007 1.87753 243.554 1.90025C245.189 1.90485 246.819 2.54918 248.426 2.17239C248.78 2.52927 249.149 2.37355 249.534 2.40853C249.913 2.37994 250.293 2.35135 250.691 2.57702C251.233 2.53617 251.78 2.55889 252.322 2.51805C253.786 2.40778 255.217 3.3227 256.652 2.83104C257.006 3.18792 257.376 3.0322 257.76 3.06717C258.14 3.03858 258.514 2.94643 258.918 3.23566C259.46 3.19482 260.002 3.15397 260.494 3.18078C260.794 3.54174 261.218 3.38194 261.602 3.41692C261.982 3.38833 262.356 3.29617 262.76 3.5854C263.519 3.52822 264.475 3.20045 265.1 3.53691C266.011 4.04364 266.809 3.79168 267.686 3.85346C267.986 4.21443 268.361 4.12227 268.686 4.09777C269.119 4.06509 269.548 3.96885 269.897 4.26217C271.618 3.94078 273.281 5.03006 274.991 4.58154C275.985 5.46557 277.174 4.60886 278.134 5.04794C279.315 5.53425 280.479 5.06301 281.488 5.43444C282.497 5.80588 283.503 5.41045 284.3 5.86179C285.378 6.41983 286.389 6.08797 287.433 6.20106C287.787 6.55795 288.265 6.39406 288.614 6.68737C290.167 6.31467 291.644 7.09838 293.176 7.17471C294.053 7.23649 295.083 7.15889 295.875 7.54666C296.835 7.98574 297.786 7.5944 298.633 7.97809C299.593 8.41717 300.653 8.01767 301.445 8.40544C302.351 8.8486 303.456 8.31788 304.041 8.84912C305.029 9.66959 306.204 8.62218 306.995 9.71325C307.054 9.77273 307.108 9.76864 307.163 9.76456C308.494 9.34463 309.892 9.8146 311.019 10.305C312.255 10.7872 313.616 10.0454 314.732 11.1119C314.732 11.1119 314.787 11.1079 314.841 11.1038C316.009 10.6961 317.2 11.3095 318.155 11.6851C319.445 12.1632 320.807 11.4214 321.923 12.4879C321.923 12.4879 321.977 12.4838 322.031 12.4797C323.2 12.0721 324.292 12.8208 325.4 13.0569C326.395 13.2377 327.578 13.0207 328.512 13.8453C328.571 13.9047 328.625 13.9006 328.679 13.8966C329.744 13.5606 330.763 14.0592 331.664 14.4388C332.678 14.8738 333.837 14.339 334.726 15.2947C334.785 15.3542 334.84 15.3501 334.894 15.3461C336.067 15.0019 337.159 15.7507 338.317 15.9192C339.031 15.9932 340.061 15.9156 340.72 16.697C340.779 16.7565 340.892 16.8119 340.946 16.8078C342.011 16.4719 343.084 16.9663 343.881 17.4177C344.905 17.9798 345.95 17.3896 346.885 18.2141C347.352 18.6264 348.224 18.6246 348.771 18.6474C349.761 18.7645 350.864 18.9371 351.715 19.3844C352.68 19.887 353.696 19.6187 354.714 20.1173C355.339 20.4537 356.28 20.6386 357.112 20.8315C357.944 21.0245 358.871 21.0187 359.574 21.6689C359.633 21.7283 359.746 21.7837 359.8 21.7797C360.757 21.4519 361.623 22.0898 362.41 22.414C363.144 22.7423 364.016 22.7405 364.754 23.1324C365.433 23.4648 366.319 23.6537 367.152 23.8467C367.984 24.0397 368.91 24.0338 369.613 24.684C369.672 24.7435 369.786 24.7989 369.84 24.7948C370.742 24.4711 371.464 25.3756 372.395 25.4332C372.888 25.46 373.612 25.6612 374.089 26.2006C374.152 26.3237 374.32 26.375 374.374 26.3709C375.276 26.0472 376.093 26.7528 376.875 27.0134C377.993 27.3767 379.304 27.4058 380.248 28.3575C380.365 28.4764 380.528 28.4642 380.691 28.4519C381.563 28.4502 382.306 28.9056 383.054 29.4246C383.167 29.48 383.28 29.5353 383.388 29.5272C384.315 29.5213 385.072 30.1674 385.914 30.4875C386.583 30.6928 387.178 31.3512 387.982 31.1628C388.514 30.9948 388.991 31.5342 389.389 31.7599C390.698 32.4923 392.127 32.6403 393.327 33.3809C394.582 34.1174 395.931 34.655 397.24 35.3874C398.146 35.8306 399.105 36.2696 400.065 36.7087C400.971 37.1519 401.975 37.4598 402.792 38.1654C403.145 38.5222 403.692 38.545 404.091 38.7706C405.4 39.503 406.709 40.2354 408.013 40.9043C409.15 41.5218 410.252 42.3976 411.487 42.8799C412.162 43.1487 412.841 43.4811 413.426 44.0123C413.957 44.5476 414.631 44.8164 415.301 45.0217C415.636 45.1243 415.714 45.438 415.94 45.5488C417.013 46.0433 417.997 46.8002 418.971 47.43C419.832 48.0043 420.752 48.6382 421.667 49.2085C422.469 49.7234 423.137 50.6319 424.073 50.7532C424.457 50.7882 424.432 51.1736 424.663 51.348C426.991 52.579 428.844 54.7407 430.583 56.847C431.365 57.8109 432.412 58.6909 432.897 60.0607C433.166 60.7436 433.811 61.3343 434.247 62.0685C434.616 62.616 434.935 63.2312 435.195 63.787C435.837 65.081 436.381 66.5103 436.816 67.9478C437.316 69.5083 437.322 71.042 437.55 72.623C437.774 74.1403 437.391 75.5755 436.895 76.9553C436.672 77.6113 436.902 78.489 436.462 79.1614C436.319 79.4279 436.131 79.8256 435.992 80.1557C434.857 83.1818 432.665 85.2008 431.004 87.7551C429.777 88.1033 429.345 89.6061 428.304 90.2599C427.47 90.7701 426.773 91.6537 425.954 92.3547C425.184 92.988 424.478 93.7444 423.708 94.3777C422.884 95.0152 421.932 95.4065 421.231 96.2265C420.929 96.5688 420.406 96.8639 420.037 97.0196C418.981 97.4827 418.205 98.7557 416.949 98.7226C416.74 99.5693 415.903 99.3128 415.453 99.858C415.053 100.336 414.172 100.21 413.618 100.827C412.962 101.516 411.917 101.403 411.265 102.155C410.861 102.569 410.106 102.69 409.628 102.854C408.721 103.114 407.946 103.684 407.044 104.008C405.979 104.344 404.787 104.433 403.927 105.329C403.878 105.397 403.824 105.401 403.77 105.405C402.553 105.177 401.463 105.898 400.579 106.476C399.381 107.206 397.919 106.613 396.975 107.835C396.926 107.902 396.871 107.906 396.817 107.91C395.068 107.85 393.587 109.177 391.829 108.99C391.311 109.348 390.759 109.262 390.517 109.664Z" fill="#2ACC32"/>
</svg>
